<svg id="Capa_1" enable-background="new 0 0 512 512" height="512" viewBox="0 0 512 512" width="512" xmlns="http://www.w3.org/2000/svg"><g><path d="m320.895 387.958c-.177-.946-1.402-6.592-8.219-24.922-5.95-15.998 2.196-33.79 18.194-39.739 16-5.951 33.791 2.196 39.74 18.194 7.991 21.484 10.101 30.057 11.047 35.127 3.131 16.779-7.932 32.919-24.711 36.051-16.853 3.143-32.933-8.003-36.051-24.711z" fill="#f2d98d"/><path d="m438.933 210.592c-10.649-1.304-18.225-10.994-16.921-21.643 3.164-25.838 22.567-70.432 63.054-87.384 9.895-4.144 21.277.519 25.422 10.415 4.144 9.896-.519 21.278-10.416 25.421-23.445 9.817-37.428 39.381-39.496 56.27-1.308 10.686-11.038 18.226-21.643 16.921z" fill="#f2d98d"/><path d="m309.4 13.777c-62.113 0-112.465 56.542-112.465 126.291 0 8.744.795 17.278 2.304 25.52.945 5.164-2.702 10-7.934 10.439-18.903 1.585-36.777 9.178-50.587 22.988-33.837 33.837-30.465 92.07 7.532 130.067s85.968 34.814 131.169 19.105c39.027-13.563 142.448-38.696 142.448-208.119-.001-69.749-50.354-126.291-112.467-126.291z" fill="#8de1ce"/><path d="m192.01 46.456c-62.113 0-112.466 56.542-112.466 126.291 0 8.744.795 17.278 2.304 25.52.945 5.165-2.702 10-7.934 10.439-18.903 1.585-36.777 9.179-50.587 22.988-33.837 33.837-30.465 92.07 7.531 130.067 37.997 37.997 85.968 34.814 131.169 19.105 39.027-13.563 142.448-38.696 142.448-208.119.001-69.748-50.352-126.291-112.465-126.291z" fill="#f8d2e3"/><path d="m162.028 380.866c19.816-6.887 56.232-16.771 87.284-47-88.454-24.774-142.083-164.922-140.059-246.628-18.442 22.495-29.708 52.522-29.708 85.508 0 8.744.795 17.278 2.304 25.52.945 5.165-2.703 10-7.934 10.439-18.903 1.584-36.777 9.178-50.587 22.988-33.837 33.837-30.465 92.07 7.531 130.067s85.968 34.815 131.169 19.106z" fill="#f1b3c1"/><path d="m57.762 424.467c-3.436-26.88 15.57-51.455 42.449-54.89 118.066-15.088 177.856-57.323 199.924-141.219 6.893-26.206 33.722-41.854 59.932-34.971 26.207 6.894 41.863 33.726 34.97 59.932-18.997 72.224-59.675 127.291-120.903 163.671-56.287 33.445-119.119 44.512-161.484 49.926-26.768 3.421-51.439-15.462-54.888-42.449z" fill="#f6ee86"/><path d="m360.067 193.387c-26.21-6.883-53.039 8.765-59.932 34.971-7.408 28.164-19.076 51.627-35.764 70.95 23.912 25.031 56.184 39.76 89.681 44.243 18.364-26.189 32.066-56.319 40.986-90.232 6.892-26.206-8.765-53.039-34.971-59.932z" fill="#f2d98d"/><ellipse cx="376.56" cy="219.182" fill="#f6ee86" rx="114.361" ry="94.965"/><ellipse cx="192.01" cy="155.397" fill="#7c93dd" rx="48.368" ry="58.226"/><ellipse cx="110.711" cy="290.734" fill="#7c93dd" rx="47.402" ry="37.745"/><path d="m311.024 179.804c-10.649-1.304-18.225-10.993-16.921-21.643 3.728-30.45 24.672-57.972 56.025-73.621 9.6-4.788 21.266-.894 26.057 8.706 4.792 9.599.894 21.266-8.705 26.057-19.659 9.812-32.673 26.104-34.813 43.58-1.308 10.686-11.037 18.225-21.643 16.921z" fill="#f2d98d"/><g><g fill="#eda1ab"><ellipse cx="303.615" cy="239.691" rx="27.846" ry="22.175"/><ellipse cx="454.55" cy="239.691" rx="27.846" ry="22.175"/></g><g fill="#4b5165"><path d="m319.844 224.785c-7.674 0-14.972-3.323-20.022-9.119-2.721-3.122-2.396-7.86.727-10.581s7.861-2.396 10.582.728c2.2 2.524 5.376 3.973 8.713 3.973s6.513-1.448 8.713-3.974c2.721-3.123 7.459-3.447 10.582-.727 3.123 2.722 3.448 7.459.727 10.582-5.051 5.795-12.348 9.118-20.022 9.118z"/><path d="m438.321 224.785c-7.674 0-14.971-3.323-20.021-9.118-2.721-3.123-2.396-7.86.727-10.582 3.122-2.721 7.86-2.395 10.582.727 2.201 2.525 5.376 3.974 8.713 3.974s6.513-1.448 8.713-3.974c2.721-3.123 7.459-3.447 10.582-.727 3.123 2.722 3.448 7.459.727 10.582-5.051 5.795-12.349 9.118-20.023 9.118z"/><ellipse cx="379.083" cy="230.351" rx="11.109" ry="11.847"/></g></g><g fill="#f2d98d"><path d="m172.777 498.139c-17.023-1.249-29.811-16.06-28.562-33.084.07-.96.324-6.732-1.595-26.195-1.675-16.986 10.737-32.114 27.724-33.789 16.974-1.676 32.113 10.737 33.789 27.724 2.249 22.811 2.104 31.639 1.727 36.781-1.253 17.095-16.129 29.804-33.083 28.563z"/><path d="m273.688 417.982c-.177-.946-1.402-6.591-8.219-24.922-5.95-15.998 2.196-33.79 18.194-39.74 16-5.951 33.79 2.196 39.74 18.194 7.99 21.484 10.101 30.057 11.047 35.127 3.131 16.779-7.932 32.919-24.711 36.051-16.854 3.144-32.934-8.001-36.051-24.71z"/></g></g></svg>