<svg height="480pt" viewBox="-63 0 479 480" width="480pt" xmlns="http://www.w3.org/2000/svg" xmlns:xlink="http://www.w3.org/1999/xlink"><linearGradient id="a" gradientUnits="userSpaceOnUse" x1="176.756" x2="174.852" y1="497.584" y2="-13.568"><stop offset="0" stop-color="#006df0"/><stop offset="1" stop-color="#00e7f0"/></linearGradient><path d="m248.5 280h-24c-4.417969 0-8-3.582031-8-8h104c2.769531.007812 5.347656-1.414062 6.816406-3.765625 1.464844-2.351563 1.609375-5.292969.382813-7.777344l-4.078125-8.257812c-12.535156-25.378907-19.078125-53.300781-19.121094-81.605469v-42.59375c0-70.691406-57.308594-128-128-128s-128 57.308594-128 128v42.59375c-.035156 28.300781-6.566406 56.21875-19.089844 81.597656l-4.078125 8.257813c-1.230469 2.476562-1.089843 5.417969.371094 7.769531 1.457031 2.351562 4.03125 3.78125 6.796875 3.78125h104c0 4.417969-3.582031 8-8 8h-24c-57.410156.066406-103.933594 46.589844-104 104v88c0 4.417969 3.582031 8 8 8h336c4.417969 0 8-3.582031 8-8v-88c-.066406-57.410156-46.589844-103.933594-104-104zm-136-112v-32h24c25.433594.136719 49.011719-13.304688 61.847656-35.265625 10.625 12.1875 25.984375 19.207031 42.152344 19.265625v48c0 35.347656-28.652344 64-64 64s-64-28.652344-64-64zm-19.304688-4.695312c-3.523437-3.496094-5.210937-8.4375-4.5625-13.359376.648438-4.921874 3.558594-9.257812 7.867188-11.722656v27.554688c-1.203125-.679688-2.316406-1.507813-3.304688-2.472656zm163.304688-25.082032c4.308594 2.464844 7.21875 6.800782 7.867188 11.722656.648437 4.921876-1.039063 9.863282-4.5625 13.359376-.988282.964843-2.097657 1.792968-3.304688 2.464843zm-211.152344 117.777344c12.578125-26.71875 19.117188-55.878906 19.152344-85.40625v-42.59375c0-61.855469 50.144531-112 112-112s112 50.144531 112 112v42.59375c.035156 29.527344 6.574219 58.6875 19.152344 85.40625h-91.152344v-18.824219c19.988281-11.566406 34.015625-31.195312 38.488281-53.855469 14.570313-2.976562 25.152344-15.625 25.511719-30.492187.363281-14.863281-9.59375-28.011719-24-31.691406v-9.136719c0-4.417969-3.582031-8-8-8h-8c-15.203125-.03125-29.078125-8.65625-35.839844-22.273438 0 0-.105468 0-.136718 0-.796876-2.238281-2.558594-4.003906-4.800782-4.796874-4.183594-1.417969-8.722656.824218-10.144531 5.007812-7.652344 22.789062-29.035156 38.125-53.078125 38.0625h-32c-16.382812.039062-30.089844 12.441406-31.761719 28.738281-1.667969 16.296875 9.238281 31.222657 25.273438 34.582031 4.472656 22.660157 18.5 42.289063 38.488281 53.855469v18.824219zm107.152344 16v-27.6875c15.621094 4.917969 32.378906 4.917969 48 0v27.6875c0 13.253906 10.746094 24 24 24h7.359375c-3.953125 27.535156-27.542969 47.976562-55.359375 47.976562s-51.40625-20.441406-55.359375-47.976562h7.359375c13.253906 0 24-10.746094 24-24zm79.960938 61.214844-22.6875 130.785156h-66.546876l-22.6875-130.785156c13.640626 16.9375 34.214844 26.785156 55.960938 26.785156s42.320312-9.847656 55.960938-26.785156zm-215.960938 50.785156c.070312-45.996094 35.535156-84.191406 81.398438-87.664062l29.097656 167.664062h-46.496094v-72c0-4.417969-3.582031-8-8-8s-8 3.582031-8 8v72h-48zm320 80h-48v-72c0-4.417969-3.582031-8-8-8s-8 3.582031-8 8v72h-46.496094l29.097656-167.664062c45.863282 3.472656 81.328126 41.667968 81.398438 87.664062zm0 0" fill="url(#a)"/></svg>